<?xml version="1.0" encoding="utf-8"?>
<!-- Generator: Adobe Illustrator 17.0.2, SVG Export Plug-In . SVG Version: 6.00 Build 0)  -->
<!DOCTYPE svg PUBLIC "-//W3C//DTD SVG 1.1//EN" "http://www.w3.org/Graphics/SVG/1.1/DTD/svg11.dtd">
<svg version="1.1" id="Layer_1" xmlns="http://www.w3.org/2000/svg" xmlns:xlink="http://www.w3.org/1999/xlink" x="0px" y="0px"
	 width="689.318px" height="642.217px" viewBox="0 0 689.318 642.217" enable-background="new 0 0 689.318 642.217"
	 xml:space="preserve">
<g>
	<g>
		<g>
			<g>
				
					<ellipse transform="matrix(-0.6304 -0.7763 0.7763 -0.6304 829.5235 668.4048)" fill="#3B1410" cx="573.881" cy="136.727" rx="112.318" ry="117.438"/>
				<g>
					<g>
						
							<linearGradient id="SVGID_1_" gradientUnits="userSpaceOnUse" x1="-402.9502" y1="939.6608" x2="-331.6008" y2="939.6608" gradientTransform="matrix(-0.0414 -0.999 0.999 -0.0414 -313.7207 -151.8308)">
							<stop  offset="0" style="stop-color:#3B1410"/>
							<stop  offset="0.1834" style="stop-color:#502919"/>
							<stop  offset="0.533" style="stop-color:#835321"/>
							<stop  offset="1" style="stop-color:#3B1410"/>
						</linearGradient>
						<path fill="url(#SVGID_1_)" d="M610.424,213.071c0,0,63.683,1.451,59.549-73.829
							C669.974,139.242,663.009,200.72,610.424,213.071z"/>
						
							<linearGradient id="SVGID_2_" gradientUnits="userSpaceOnUse" x1="335.5046" y1="363.5505" x2="410.826" y2="363.5505" gradientTransform="matrix(0.7423 0.67 0.67 -0.7423 67.1035 77.1552)">
							<stop  offset="0" style="stop-color:#3B1410"/>
							<stop  offset="0.1834" style="stop-color:#502919"/>
							<stop  offset="0.533" style="stop-color:#835321"/>
							<stop  offset="1" style="stop-color:#3B1410"/>
						</linearGradient>
						<path fill="url(#SVGID_2_)" d="M538.389,55.726c0,0,40.268-47.276,98.591,3.174C636.98,58.901,582.618,25.227,538.389,55.726z
							"/>
						
							<linearGradient id="SVGID_3_" gradientUnits="userSpaceOnUse" x1="-2232.4961" y1="-587.3471" x2="-2176.293" y2="-587.3471" gradientTransform="matrix(-0.5277 0.8493 -0.8493 -0.5277 -1062.6609 1651.484)">
							<stop  offset="0" style="stop-color:#3B1410"/>
							<stop  offset="0.1834" style="stop-color:#502919"/>
							<stop  offset="0.533" style="stop-color:#835321"/>
							<stop  offset="1" style="stop-color:#3B1410"/>
						</linearGradient>
						<path fill="url(#SVGID_3_)" d="M645.642,86.604c0,0-56.077-31.247-93.199,6.516C552.443,93.12,587.056,35.894,645.642,86.604z
							"/>
						
							<linearGradient id="SVGID_4_" gradientUnits="userSpaceOnUse" x1="-2228.9397" y1="-295.3342" x2="-2155.5984" y2="-295.3342" gradientTransform="matrix(-0.6438 0.7652 -0.7652 -0.6438 -1035.2269 1601.1501)">
							<stop  offset="0" style="stop-color:#3B1410"/>
							<stop  offset="0.1834" style="stop-color:#502919"/>
							<stop  offset="0.533" style="stop-color:#835321"/>
							<stop  offset="1" style="stop-color:#3B1410"/>
						</linearGradient>
						<path fill="url(#SVGID_4_)" d="M645.847,102.606c0,0-50.104-21.263-87.027,22.627
							C558.819,125.233,592.348,71.114,645.847,102.606z"/>
						
							<linearGradient id="SVGID_5_" gradientUnits="userSpaceOnUse" x1="-2289.9167" y1="-302.4471" x2="-2206.2373" y2="-302.4471" gradientTransform="matrix(-0.8224 0.569 -0.569 -0.8224 -1393.106 1197.1461)">
							<stop  offset="0" style="stop-color:#3B1410"/>
							<stop  offset="0.1834" style="stop-color:#502919"/>
							<stop  offset="0.533" style="stop-color:#835321"/>
							<stop  offset="1" style="stop-color:#3B1410"/>
						</linearGradient>
						<path fill="url(#SVGID_5_)" d="M657.495,136.096c0,0-17.959,53.366-70.557,45.1
							C586.939,181.197,644.183,201.136,657.495,136.096z"/>
						
							<linearGradient id="SVGID_6_" gradientUnits="userSpaceOnUse" x1="-2219.0256" y1="-316.291" x2="-2147.5671" y2="-316.291" gradientTransform="matrix(-0.6438 0.7652 -0.7652 -0.6438 -1035.2269 1601.1501)">
							<stop  offset="0" style="stop-color:#3B1410"/>
							<stop  offset="0.1834" style="stop-color:#502919"/>
							<stop  offset="0.533" style="stop-color:#835321"/>
							<stop  offset="1" style="stop-color:#3B1410"/>
						</linearGradient>
						<path fill="url(#SVGID_6_)" d="M646.085,115.763c0,0-21.869,30.751-68.64,35.636
							C577.445,151.399,620.6,161.903,646.085,115.763z"/>
					</g>
				</g>
			</g>
			<g>
				<path fill="#3B1410" d="M186.242,46.116c50.348,40.887,59.462,113.069,20.359,161.221
					c-39.108,48.152-111.623,54.042-161.972,13.156c-50.345-40.89-59.462-113.072-20.355-161.226
					C63.379,11.115,135.893,5.225,186.242,46.116z"/>
				<g>
					<g>
						
							<linearGradient id="SVGID_7_" gradientUnits="userSpaceOnUse" x1="-434.0402" y1="1772.5775" x2="-362.6902" y2="1772.5775" gradientTransform="matrix(0.0414 -0.999 -0.999 -0.0414 1836.4091 -151.8308)">
							<stop  offset="0" style="stop-color:#3B1410"/>
							<stop  offset="0.1834" style="stop-color:#502919"/>
							<stop  offset="0.533" style="stop-color:#835321"/>
							<stop  offset="1" style="stop-color:#3B1410"/>
						</linearGradient>
						<path fill="url(#SVGID_7_)" d="M78.892,209.647c0,0-63.684,1.452-59.548-73.83C19.345,135.817,26.309,197.297,78.892,209.647z
							"/>
						
							<linearGradient id="SVGID_8_" gradientUnits="userSpaceOnUse" x1="951.8776" y1="924.5019" x2="1027.199" y2="924.5019" gradientTransform="matrix(-0.7423 0.67 -0.67 -0.7423 1455.5847 77.1552)">
							<stop  offset="0" style="stop-color:#3B1410"/>
							<stop  offset="0.1834" style="stop-color:#502919"/>
							<stop  offset="0.533" style="stop-color:#835321"/>
							<stop  offset="1" style="stop-color:#3B1410"/>
						</linearGradient>
						<path fill="url(#SVGID_8_)" d="M150.929,52.302c0,0-40.269-47.275-98.591,3.174C52.337,55.476,106.7,21.805,150.929,52.302z"
							/>
						
							<linearGradient id="SVGID_9_" gradientUnits="userSpaceOnUse" x1="-2675.2734" y1="-1293.4803" x2="-2619.0691" y2="-1293.4803" gradientTransform="matrix(0.5277 0.8493 0.8493 -0.5277 2585.3501 1651.484)">
							<stop  offset="0" style="stop-color:#3B1410"/>
							<stop  offset="0.1834" style="stop-color:#502919"/>
							<stop  offset="0.533" style="stop-color:#835321"/>
							<stop  offset="1" style="stop-color:#3B1410"/>
						</linearGradient>
						<path fill="url(#SVGID_9_)" d="M43.675,83.179c0,0,56.078-31.247,93.198,6.518C136.873,89.697,102.262,32.471,43.675,83.179z"
							/>
						
							<linearGradient id="SVGID_10_" gradientUnits="userSpaceOnUse" x1="-2768.0786" y1="-930.8193" x2="-2694.7368" y2="-930.8193" gradientTransform="matrix(0.6438 0.7652 0.7652 -0.6438 2557.9155 1601.1501)">
							<stop  offset="0" style="stop-color:#3B1410"/>
							<stop  offset="0.1834" style="stop-color:#502919"/>
							<stop  offset="0.533" style="stop-color:#835321"/>
							<stop  offset="1" style="stop-color:#3B1410"/>
						</linearGradient>
						<path fill="url(#SVGID_10_)" d="M43.471,99.183c0,0,50.104-21.261,87.028,22.626C130.499,121.809,96.969,67.691,43.471,99.183
							z"/>
						
							<linearGradient id="SVGID_11_" gradientUnits="userSpaceOnUse" x1="-2977.1575" y1="-773.7715" x2="-2893.4783" y2="-773.7715" gradientTransform="matrix(0.8224 0.569 0.569 -0.8224 2915.7942 1197.1461)">
							<stop  offset="0" style="stop-color:#3B1410"/>
							<stop  offset="0.1834" style="stop-color:#502919"/>
							<stop  offset="0.533" style="stop-color:#835321"/>
							<stop  offset="1" style="stop-color:#3B1410"/>
						</linearGradient>
						<path fill="url(#SVGID_11_)" d="M31.822,132.674c0,0,17.958,53.365,70.557,45.1
							C102.379,177.774,45.134,197.711,31.822,132.674z"/>
						
							<linearGradient id="SVGID_12_" gradientUnits="userSpaceOnUse" x1="-2758.1646" y1="-951.7772" x2="-2686.707" y2="-951.7772" gradientTransform="matrix(0.6438 0.7652 0.7652 -0.6438 2557.9155 1601.1501)">
							<stop  offset="0" style="stop-color:#3B1410"/>
							<stop  offset="0.1834" style="stop-color:#502919"/>
							<stop  offset="0.533" style="stop-color:#835321"/>
							<stop  offset="1" style="stop-color:#3B1410"/>
						</linearGradient>
						<path fill="url(#SVGID_12_)" d="M43.232,112.34c0,0,21.869,30.75,68.64,35.635C111.872,147.975,68.717,158.48,43.232,112.34z"
							/>
					</g>
				</g>
			</g>
			<g>
				<linearGradient id="SVGID_13_" gradientUnits="userSpaceOnUse" x1="311.1925" y1="63.994" x2="360.3353" y2="424.3733">
					<stop  offset="0.0056" style="stop-color:#E3B087"/>
					<stop  offset="0.0291" style="stop-color:#E5B38B"/>
					<stop  offset="0.1391" style="stop-color:#ECC09A"/>
					<stop  offset="0.2753" style="stop-color:#F1C9A5"/>
					<stop  offset="0.4672" style="stop-color:#F4CEAB"/>
					<stop  offset="1" style="stop-color:#F5D0AD"/>
				</linearGradient>
				<path fill="url(#SVGID_13_)" d="M349.073,57.331c-151.457,0-274.236,127.366-274.236,284.479
					c0,22.437,2.513,44.266,7.247,65.204C110.5,532.7,220.382,642.217,350.21,642.217c127.014,0,232.705-105.509,263.884-227.083
					c6.001-23.396,9.217-47.971,9.217-73.324C623.311,184.697,500.529,57.331,349.073,57.331z"/>
				<g>
					<radialGradient id="SVGID_14_" cx="214.0404" cy="537.9091" r="39.4764" gradientUnits="userSpaceOnUse">
						<stop  offset="0" style="stop-color:#F8AEAB"/>
						<stop  offset="0.2779" style="stop-color:#F7B3AB"/>
						<stop  offset="0.721" style="stop-color:#F5C4AD"/>
						<stop  offset="1" style="stop-color:#F5D0AD"/>
					</radialGradient>
					<ellipse fill="url(#SVGID_14_)" cx="214.04" cy="537.907" rx="40.964" ry="37.933"/>
					<radialGradient id="SVGID_15_" cx="484.1053" cy="537.9091" r="39.4767" gradientUnits="userSpaceOnUse">
						<stop  offset="0" style="stop-color:#F8AEAB"/>
						<stop  offset="0.2779" style="stop-color:#F7B3AB"/>
						<stop  offset="0.721" style="stop-color:#F5C4AD"/>
						<stop  offset="1" style="stop-color:#F5D0AD"/>
					</radialGradient>
					<ellipse fill="url(#SVGID_15_)" cx="484.105" cy="537.907" rx="40.964" ry="37.933"/>
				</g>
				<g>
					<g>
						<g>
							<path fill="#3B1410" d="M492.486,387.328c-10.565-0.004-21.142,5.141-28.662,15.414l0,0v-0.003
								c-0.359,0.493-0.309,1.233,0.11,1.651l0,0c0.424,0.421,1.056,0.36,1.417-0.129l0,0c7.126-9.733,17.123-14.593,27.135-14.594
								l0,0c10.01,0.001,20.01,4.861,27.136,14.594l0,0c0.358,0.489,0.992,0.551,1.415,0.129l0,0
								c0.419-0.418,0.47-1.157,0.108-1.648l0,0c-7.515-10.27-18.091-15.414-28.653-15.414l0,0
								C492.489,387.328,492.488,387.328,492.486,387.328L492.486,387.328z"/>
							<path fill="#3B1410" d="M520.384,406.376c-0.845,0.004-1.66-0.436-2.141-1.11l0,0c-6.843-9.329-16.304-13.885-25.759-13.893
								l0,0c-9.455,0.008-18.914,4.564-25.766,13.906l0,0c-0.482,0.658-1.28,1.102-2.134,1.098l0,0
								c-0.685,0.004-1.374-0.29-1.855-0.777l0,0c-0.598-0.603-0.852-1.365-0.855-2.101l0,0c0.003-0.605,0.178-1.225,0.574-1.768
								l0,0c0.01-0.016,0.02-0.029,0.032-0.041l0,0c7.799-10.645,18.892-16.077,29.998-16.07l0,0c0.005,0,0.011,0,0.014,0l0,0h0.003
								c11.119-0.007,22.229,5.44,30.031,16.115l0,0c0.396,0.546,0.564,1.165,0.567,1.766l0,0c-0.003,0.731-0.251,1.493-0.856,2.103
								l0,0c-0.478,0.479-1.151,0.773-1.837,0.773l0,0C520.394,406.376,520.387,406.376,520.384,406.376L520.384,406.376z
								 M492.484,387.957v-0.63l0.336-1.675l-0.336,1.675V387.957L492.484,387.957L492.484,387.957z"/>
						</g>
					</g>
					<g>
						<g>
							<path fill="#3B1410" d="M227.415,387.328c-10.562-0.004-21.144,5.141-28.661,15.414l0,0v-0.003
								c-0.361,0.493-0.311,1.233,0.112,1.651l0,0c0.419,0.421,1.054,0.36,1.414-0.129l0,0c7.126-9.733,17.124-14.593,27.135-14.594
								l0,0c10.011,0.001,20.01,4.861,27.137,14.594l0,0c0.36,0.489,0.993,0.551,1.413,0.129l0,0
								c0.423-0.418,0.471-1.157,0.11-1.648l0,0c-7.517-10.27-18.091-15.414-28.652-15.414l0,0
								C227.42,387.328,227.415,387.328,227.415,387.328L227.415,387.328z"/>
							<path fill="#3B1410" d="M255.313,406.376c-0.845,0.004-1.658-0.436-2.14-1.11l0,0c-6.843-9.329-16.303-13.885-25.758-13.893
								l0,0c-9.454,0.008-18.915,4.564-25.766,13.906l0,0c-0.481,0.658-1.282,1.102-2.132,1.098l0,0
								c-0.69,0.004-1.377-0.29-1.857-0.777l0,0c-0.597-0.603-0.854-1.365-0.855-2.101l0,0c0.001-0.605,0.176-1.225,0.574-1.768l0,0
								c0.011-0.016,0.02-0.029,0.029-0.041l0,0c7.799-10.645,18.895-16.077,30.001-16.07l0,0c0.003,0,0.006,0,0.012,0l0,0h0.002
								c11.121-0.007,22.231,5.44,30.03,16.115l0,0c0.397,0.546,0.567,1.165,0.57,1.766l0,0c-0.003,0.731-0.254,1.493-0.857,2.103
								l0,0c-0.479,0.479-1.151,0.773-1.836,0.773l0,0C255.323,406.376,255.316,406.376,255.313,406.376L255.313,406.376z
								 M227.415,387.957v-0.63l0.335-1.675l-0.335,1.675V387.957L227.415,387.957L227.415,387.957z"/>
						</g>
					</g>
				</g>
				<g>
					<path fill="#010101" d="M550.875,438.219c0,0-20.954,15.173-54.19,5.058c0,0-11.385-5.42-24.246-1.27
						c-14.925,3.748-25.904,16.404-25.904,31.447c0,17.998,15.711,32.589,35.094,32.589c17.583,0,32.146-12.007,34.695-27.675
						C526.478,476.524,544.696,465.739,550.875,438.219z"/>
					<g>
						<path fill="#FFFFFF" d="M507.899,468.263c0,5.813-5.136,10.527-11.465,10.527c-6.338,0-11.469-4.714-11.469-10.527
							c0-5.815,5.131-10.533,11.469-10.533C502.764,457.729,507.899,462.447,507.899,468.263z"/>
						<path fill="#FFFFFF" d="M481.926,485.341c0,2.727-2.41,4.939-5.378,4.939c-2.976,0-5.385-2.213-5.385-4.939
							c0-2.73,2.409-4.945,5.385-4.945C479.516,480.395,481.926,482.61,481.926,485.341z"/>
					</g>
					<g>
						<path fill="#1B181C" d="M259.35,466.94c-3.782-0.455-7.734,3.301-10.425,7.143c-12.191,18.109-45.449,18.109-57.64,0
							c-2.689-3.842-6.639-7.598-10.422-7.143l0,0c-3.764,0.411-5.53,7.023-1.549,12.898c17.254,25.639,64.33,25.639,81.582,0.004
							C264.882,473.964,263.113,467.351,259.35,466.94L259.35,466.94z"/>
					</g>
				</g>
				<g>
					<path fill="#FFFFFF" d="M416.744,544.266c-0.859-1.077-2.08-1.004-2.927,0h-0.332h-56.791h-2.917h-65.42
						c-0.833-1.426-2.29-1.211-3.262,0c-0.973,1.221-1.084,3.361-0.253,4.785v-0.006c17.332,29.784,41.724,44.691,66.077,44.691
						c0.003,0,0.012,0,0.016,0c24.351,0,48.733-14.914,66.064-44.691C417.83,547.62,417.713,545.487,416.744,544.266z"/>
				</g>
			</g>
			<g>
				<path fill="#3B1410" d="M645.703,353.759C645.703,143.246,513.84-0.268,341.232,0C171.073,0.262,56.233,143.246,56.233,353.762
					c0.002,25.142,15.687,89.017,20.993,101.091c8.953,20.378,48.74,52.87,75.597,91.852
					c-31.331-71.765-30.074-146.556-30.074-146.556s159.164,42.443,363.427-161.817c6.581,8.1,94.723,185.055,94.723,185.055
					s14.964,48.898-26.22,111.805c0,0,58.79-48.696,71.791-82.74C629.64,444.155,645.703,378.784,645.703,353.759z"/>
				<g>
					
						<linearGradient id="SVGID_16_" gradientUnits="userSpaceOnUse" x1="772.6558" y1="102.7029" x2="985.3578" y2="102.7029" gradientTransform="matrix(-0.9886 0.1505 0.1505 0.9886 1120.4738 -172.6003)">
						<stop  offset="0" style="stop-color:#3B1410"/>
						<stop  offset="0.1834" style="stop-color:#502919"/>
						<stop  offset="0.533" style="stop-color:#835321"/>
						<stop  offset="1" style="stop-color:#3B1410"/>
					</linearGradient>
					<path fill="url(#SVGID_16_)" d="M370.612,35.554c0,0-104.022-17.74-205.353,64.355
						C165.259,99.909,226.619,14.091,370.612,35.554z"/>
					
						<linearGradient id="SVGID_17_" gradientUnits="userSpaceOnUse" x1="512.2903" y1="252.9687" x2="620.1285" y2="252.9687" gradientTransform="matrix(-0.966 0.2584 0.2584 0.966 1027.7928 -85.7945)">
						<stop  offset="0" style="stop-color:#3B1410"/>
						<stop  offset="0.1834" style="stop-color:#502919"/>
						<stop  offset="0.533" style="stop-color:#835321"/>
						<stop  offset="1" style="stop-color:#3B1410"/>
					</linearGradient>
					<path fill="url(#SVGID_17_)" d="M444.598,133.698c0,0,199.351,60.682,159.957,353.938
						C604.555,487.635,664.541,190.835,444.598,133.698z"/>
					
						<linearGradient id="SVGID_18_" gradientUnits="userSpaceOnUse" x1="515.6821" y1="87.2381" x2="607.4606" y2="87.2381" gradientTransform="matrix(-1.0087 0.3502 0.3689 1.0625 1087.8507 -44.2152)">
						<stop  offset="0" style="stop-color:#3B1410"/>
						<stop  offset="0.1834" style="stop-color:#502919"/>
						<stop  offset="0.533" style="stop-color:#835321"/>
						<stop  offset="1" style="stop-color:#3B1410"/>
					</linearGradient>
					<path fill="url(#SVGID_18_)" d="M450.007,96.23c0,0,148.743-5.351,178.487,307.761
						C628.494,403.992,628.494,93.555,450.007,96.23z"/>
					
						<linearGradient id="SVGID_19_" gradientUnits="userSpaceOnUse" x1="536.4581" y1="146.1406" x2="817.6895" y2="146.1406" gradientTransform="matrix(-0.9989 -0.0467 -0.0467 0.9989 946.2015 19.9831)">
						<stop  offset="0" style="stop-color:#3B1410"/>
						<stop  offset="0.1834" style="stop-color:#502919"/>
						<stop  offset="0.533" style="stop-color:#835321"/>
						<stop  offset="1" style="stop-color:#3B1410"/>
					</linearGradient>
					<path fill="url(#SVGID_19_)" d="M406.495,77.037c0,0-172.367-42.429-287.129,119.639
						C119.366,196.676,201.697,31.43,406.495,77.037z"/>
					
						<linearGradient id="SVGID_20_" gradientUnits="userSpaceOnUse" x1="591.3597" y1="-28.2471" x2="861.3224" y2="-28.2471" gradientTransform="matrix(-1.1164 0.6519 0.5042 0.8635 1091.2041 -164.2081)">
						<stop  offset="0" style="stop-color:#3B1410"/>
						<stop  offset="0.1834" style="stop-color:#502919"/>
						<stop  offset="0.533" style="stop-color:#835321"/>
						<stop  offset="1" style="stop-color:#3B1410"/>
					</linearGradient>
					<path fill="url(#SVGID_20_)" d="M411.38,187.68c0,0-161.863,41.268-281.583,209.904
						C129.797,397.584,181.288,256.429,411.38,187.68z"/>
					
						<linearGradient id="SVGID_21_" gradientUnits="userSpaceOnUse" x1="349.0724" y1="137.6138" x2="680.7399" y2="137.6138" gradientTransform="matrix(-0.9695 0.0633 0.0406 0.9072 744.6884 137.8341)">
						<stop  offset="0" style="stop-color:#3B1410"/>
						<stop  offset="0.1834" style="stop-color:#502919"/>
						<stop  offset="0.533" style="stop-color:#835321"/>
						<stop  offset="1" style="stop-color:#3B1410"/>
					</linearGradient>
					<path fill="url(#SVGID_21_)" d="M403.851,106.052c0,0-354.125-2.575-299.329,378.656
						C104.523,484.708,10.224,113.738,403.851,106.052z"/>
					
						<linearGradient id="SVGID_22_" gradientUnits="userSpaceOnUse" x1="263.0153" y1="43.7536" x2="650.2787" y2="43.7536" gradientTransform="matrix(-0.8219 0.1065 0.1225 0.945 627.7811 182.8543)">
						<stop  offset="0" style="stop-color:#3B1410"/>
						<stop  offset="0.1834" style="stop-color:#502919"/>
						<stop  offset="0.533" style="stop-color:#835321"/>
						<stop  offset="1" style="stop-color:#3B1410"/>
					</linearGradient>
					<path fill="url(#SVGID_22_)" d="M404.034,152.432c0,0-221.758,21.408-292.069,243.532
						C111.965,395.964,166.053,152.432,404.034,152.432z"/>
					
						<linearGradient id="SVGID_23_" gradientUnits="userSpaceOnUse" x1="493.9396" y1="49.7161" x2="599.5733" y2="49.7161" gradientTransform="matrix(-1.0087 0.3502 0.3689 1.0625 1087.8507 -44.2152)">
						<stop  offset="0" style="stop-color:#3B1410"/>
						<stop  offset="0.1834" style="stop-color:#502919"/>
						<stop  offset="0.533" style="stop-color:#835321"/>
						<stop  offset="1" style="stop-color:#3B1410"/>
					</linearGradient>
					<path fill="url(#SVGID_23_)" d="M445.947,58.859c0,0,177.139,21.317,198.777,288.934
						C644.724,347.793,636.608,69.47,445.947,58.859z"/>
					<linearGradient id="SVGID_24_" gradientUnits="userSpaceOnUse" x1="152.8603" y1="376.5605" x2="427.4074" y2="232.4359">
						<stop  offset="0" style="stop-color:#3B1410"/>
						<stop  offset="0.1834" style="stop-color:#502919"/>
						<stop  offset="0.533" style="stop-color:#835321"/>
						<stop  offset="1" style="stop-color:#3B1410"/>
					</linearGradient>
					<path fill="url(#SVGID_24_)" d="M421.858,221.865c0,0-221.559,70.727-254.911,181.531
						C166.948,403.396,214.597,264.301,421.858,221.865z"/>
					<linearGradient id="SVGID_25_" gradientUnits="userSpaceOnUse" x1="202.8852" y1="394.3258" x2="457.3486" y2="260.7443">
						<stop  offset="0" style="stop-color:#3B1410"/>
						<stop  offset="0.1834" style="stop-color:#502919"/>
						<stop  offset="0.533" style="stop-color:#835321"/>
						<stop  offset="1" style="stop-color:#3B1410"/>
					</linearGradient>
					<path fill="url(#SVGID_25_)" d="M448.387,243.673c0,0-121.501,124.95-245.381,150.882
						C203.006,394.556,341.183,382.768,448.387,243.673z"/>
				</g>
			</g>
		</g>
	</g>
</g>
</svg>
