<?xml version="1.0" encoding="utf-8"?>
<!-- Generator: Adobe Illustrator 19.1.0, SVG Export Plug-In . SVG Version: 6.00 Build 0)  -->
<!DOCTYPE svg PUBLIC "-//W3C//DTD SVG 1.1//EN" "http://www.w3.org/Graphics/SVG/1.1/DTD/svg11.dtd">
<svg version="1.1" id="Layer_1" xmlns="http://www.w3.org/2000/svg" xmlns:xlink="http://www.w3.org/1999/xlink" x="0px" y="0px"
	 width="689.3px" height="642.2px" viewBox="0 0 689.3 642.2" enable-background="new 0 0 689.3 642.2" xml:space="preserve">
<g>
	<g>
		<g>
			<g>
				
					<ellipse transform="matrix(-0.7763 0.6304 -0.6304 -0.7763 1105.569 -118.9386)" fill="#3B1410" cx="573.9" cy="136.7" rx="117.4" ry="112.3"/>
				<g>
					<g>
						
							<linearGradient id="SVGID_1_" gradientUnits="userSpaceOnUse" x1="-436.2408" y1="-179.5828" x2="-364.8916" y2="-179.5828" gradientTransform="matrix(-4.140000e-02 -0.999 -0.999 4.140000e-02 444.2181 -216.5548)">
							<stop  offset="0" style="stop-color:#3B1410"/>
							<stop  offset="0.1834" style="stop-color:#502919"/>
							<stop  offset="0.533" style="stop-color:#835321"/>
							<stop  offset="1" style="stop-color:#3B1410"/>
						</linearGradient>
						<path fill="url(#SVGID_1_)" d="M610.4,213.1c0,0,63.7,1.5,59.5-73.8C670,139.2,663,200.7,610.4,213.1z"/>
						
							<linearGradient id="SVGID_2_" gradientUnits="userSpaceOnUse" x1="396.0639" y1="435.9293" x2="471.3849" y2="435.9293" gradientTransform="matrix(0.7423 0.67 -0.67 0.7423 557.8016 -556.8734)">
							<stop  offset="0" style="stop-color:#3B1410"/>
							<stop  offset="0.1834" style="stop-color:#502919"/>
							<stop  offset="0.533" style="stop-color:#835321"/>
							<stop  offset="1" style="stop-color:#3B1410"/>
						</linearGradient>
						<path fill="url(#SVGID_2_)" d="M538.4,55.7c0,0,40.3-47.3,98.6,3.2C637,58.9,582.6,25.2,538.4,55.7z"/>
						
							<linearGradient id="SVGID_3_" gradientUnits="userSpaceOnUse" x1="-2107.6726" y1="1309.9542" x2="-2051.4688" y2="1309.9542" gradientTransform="matrix(-0.5277 0.8493 0.8493 0.5277 -1610.5022 1164.1517)">
							<stop  offset="0" style="stop-color:#3B1410"/>
							<stop  offset="0.1834" style="stop-color:#502919"/>
							<stop  offset="0.533" style="stop-color:#835321"/>
							<stop  offset="1" style="stop-color:#3B1410"/>
						</linearGradient>
						<path fill="url(#SVGID_3_)" d="M645.6,86.6c0,0-56.1-31.2-93.2,6.5C552.4,93.1,587.1,35.9,645.6,86.6z"/>
						
							<linearGradient id="SVGID_4_" gradientUnits="userSpaceOnUse" x1="-2105.7996" y1="1030.0116" x2="-2032.458" y2="1030.0116" gradientTransform="matrix(-0.6438 0.7652 0.7652 0.6438 -1518.1245 1033.9381)">
							<stop  offset="0" style="stop-color:#3B1410"/>
							<stop  offset="0.1834" style="stop-color:#502919"/>
							<stop  offset="0.533" style="stop-color:#835321"/>
							<stop  offset="1" style="stop-color:#3B1410"/>
						</linearGradient>
						<path fill="url(#SVGID_4_)" d="M645.8,102.6c0,0-50.1-21.3-87,22.6C558.8,125.2,592.3,71.1,645.8,102.6z"/>
						
							<linearGradient id="SVGID_5_" gradientUnits="userSpaceOnUse" x1="-2174.3538" y1="1058.3629" x2="-2090.6743" y2="1058.3629" gradientTransform="matrix(-0.8224 0.569 0.569 0.8224 -1728.1842 509.7257)">
							<stop  offset="0" style="stop-color:#3B1410"/>
							<stop  offset="0.1834" style="stop-color:#502919"/>
							<stop  offset="0.533" style="stop-color:#835321"/>
							<stop  offset="1" style="stop-color:#3B1410"/>
						</linearGradient>
						<path fill="url(#SVGID_5_)" d="M657.5,136.1c0,0-18,53.4-70.6,45.1C586.9,181.2,644.2,201.1,657.5,136.1z"/>
						
							<linearGradient id="SVGID_6_" gradientUnits="userSpaceOnUse" x1="-2095.885" y1="1050.9683" x2="-2024.4266" y2="1050.9683" gradientTransform="matrix(-0.6438 0.7652 0.7652 0.6438 -1518.1245 1033.9381)">
							<stop  offset="0" style="stop-color:#3B1410"/>
							<stop  offset="0.1834" style="stop-color:#502919"/>
							<stop  offset="0.533" style="stop-color:#835321"/>
							<stop  offset="1" style="stop-color:#3B1410"/>
						</linearGradient>
						<path fill="url(#SVGID_6_)" d="M646.1,115.8c0,0-21.9,30.8-68.6,35.6C577.4,151.4,620.6,161.9,646.1,115.8z"/>
					</g>
				</g>
			</g>
			<g>
				<path fill="#3B1410" d="M186.2,46.1c50.3,40.9,59.5,113.1,20.4,161.2c-39.1,48.2-111.6,54-162,13.2
					C-5.7,179.6-14.8,107.4,24.3,59.3C63.4,11.1,135.9,5.2,186.2,46.1z"/>
				<g>
					<g>
						
							<linearGradient id="SVGID_7_" gradientUnits="userSpaceOnUse" x1="-470.6437" y1="-1092.4432" x2="-399.2934" y2="-1092.4432" gradientTransform="matrix(4.140000e-02 -0.999 0.999 4.140000e-02 1158.4691 -216.5548)">
							<stop  offset="0" style="stop-color:#3B1410"/>
							<stop  offset="0.1834" style="stop-color:#502919"/>
							<stop  offset="0.533" style="stop-color:#835321"/>
							<stop  offset="1" style="stop-color:#3B1410"/>
						</linearGradient>
						<path fill="url(#SVGID_7_)" d="M78.9,209.6c0,0-63.7,1.5-59.5-73.8C19.3,135.8,26.3,197.3,78.9,209.6z"/>
						
							<linearGradient id="SVGID_8_" gradientUnits="userSpaceOnUse" x1="1071.8258" y1="-178.6262" x2="1147.1469" y2="-178.6262" gradientTransform="matrix(-0.7423 0.67 0.67 0.7423 1044.8855 -556.8734)">
							<stop  offset="0" style="stop-color:#3B1410"/>
							<stop  offset="0.1834" style="stop-color:#502919"/>
							<stop  offset="0.533" style="stop-color:#835321"/>
							<stop  offset="1" style="stop-color:#3B1410"/>
						</linearGradient>
						<path fill="url(#SVGID_8_)" d="M150.9,52.3c0,0-40.3-47.3-98.6,3.2C52.3,55.5,106.7,21.8,150.9,52.3z"/>
						
							<linearGradient id="SVGID_9_" gradientUnits="userSpaceOnUse" x1="-2592.675" y1="2084.0469" x2="-2536.4705" y2="2084.0469" gradientTransform="matrix(0.5277 0.8493 -0.8493 0.5277 3213.1902 1164.1517)">
							<stop  offset="0" style="stop-color:#3B1410"/>
							<stop  offset="0.1834" style="stop-color:#502919"/>
							<stop  offset="0.533" style="stop-color:#835321"/>
							<stop  offset="1" style="stop-color:#3B1410"/>
						</linearGradient>
						<path fill="url(#SVGID_9_)" d="M43.7,83.2c0,0,56.1-31.2,93.2,6.5C136.9,89.7,102.3,32.5,43.7,83.2z"/>
						
							<linearGradient id="SVGID_10_" gradientUnits="userSpaceOnUse" x1="-2696.4412" y1="1726.712" x2="-2623.0999" y2="1726.712" gradientTransform="matrix(0.6438 0.7652 -0.7652 0.6438 3120.812 1033.9381)">
							<stop  offset="0" style="stop-color:#3B1410"/>
							<stop  offset="0.1834" style="stop-color:#502919"/>
							<stop  offset="0.533" style="stop-color:#835321"/>
							<stop  offset="1" style="stop-color:#3B1410"/>
						</linearGradient>
						<path fill="url(#SVGID_10_)" d="M43.5,99.2c0,0,50.1-21.3,87,22.6C130.5,121.8,97,67.7,43.5,99.2z"/>
						
							<linearGradient id="SVGID_11_" gradientUnits="userSpaceOnUse" x1="-2927.3801" y1="1575.2031" x2="-2843.7007" y2="1575.2031" gradientTransform="matrix(0.8224 0.569 -0.569 0.8224 3330.8713 509.7257)">
							<stop  offset="0" style="stop-color:#3B1410"/>
							<stop  offset="0.1834" style="stop-color:#502919"/>
							<stop  offset="0.533" style="stop-color:#835321"/>
							<stop  offset="1" style="stop-color:#3B1410"/>
						</linearGradient>
						<path fill="url(#SVGID_11_)" d="M31.8,132.7c0,0,18,53.4,70.6,45.1C102.4,177.8,45.1,197.7,31.8,132.7z"/>
						
							<linearGradient id="SVGID_12_" gradientUnits="userSpaceOnUse" x1="-2686.5273" y1="1747.6696" x2="-2615.0698" y2="1747.6696" gradientTransform="matrix(0.6438 0.7652 -0.7652 0.6438 3120.812 1033.9381)">
							<stop  offset="0" style="stop-color:#3B1410"/>
							<stop  offset="0.1834" style="stop-color:#502919"/>
							<stop  offset="0.533" style="stop-color:#835321"/>
							<stop  offset="1" style="stop-color:#3B1410"/>
						</linearGradient>
						<path fill="url(#SVGID_12_)" d="M43.2,112.3c0,0,21.9,30.8,68.6,35.6C111.9,148,68.7,158.5,43.2,112.3z"/>
					</g>
				</g>
			</g>
			<g>
				
					<linearGradient id="SVGID_13_" gradientUnits="userSpaceOnUse" x1="311.1924" y1="578.0064" x2="360.3351" y2="217.6271" gradientTransform="matrix(1 0 0 -1 0 642.0007)">
					<stop  offset="5.600000e-03" style="stop-color:#E3B087"/>
					<stop  offset="2.910000e-02" style="stop-color:#E5B38B"/>
					<stop  offset="0.1391" style="stop-color:#ECC09A"/>
					<stop  offset="0.2753" style="stop-color:#F1C9A5"/>
					<stop  offset="0.4672" style="stop-color:#F4CEAB"/>
					<stop  offset="1" style="stop-color:#F5D0AD"/>
				</linearGradient>
				<path fill="url(#SVGID_13_)" d="M349.1,57.3c-151.5,0-274.2,127.4-274.2,284.5c0,22.4,2.5,44.3,7.2,65.2
					c28.4,125.7,138.3,235.2,268.1,235.2c127,0,232.7-105.5,263.9-227.1c6-23.4,9.2-48,9.2-73.3C623.3,184.7,500.5,57.3,349.1,57.3z
					"/>
				<g>
					
						<radialGradient id="SVGID_14_" cx="214.0395" cy="104.0934" r="39.4776" gradientTransform="matrix(1 0 0 -1 0 642.0007)" gradientUnits="userSpaceOnUse">
						<stop  offset="0" style="stop-color:#F8AEAB"/>
						<stop  offset="0.2779" style="stop-color:#F7B3AB"/>
						<stop  offset="0.721" style="stop-color:#F5C4AD"/>
						<stop  offset="1" style="stop-color:#F5D0AD"/>
					</radialGradient>
					<ellipse fill="url(#SVGID_14_)" cx="214" cy="537.9" rx="41" ry="37.9"/>
					
						<radialGradient id="SVGID_15_" cx="484.1045" cy="104.0934" r="39.4776" gradientTransform="matrix(1 0 0 -1 0 642.0007)" gradientUnits="userSpaceOnUse">
						<stop  offset="0" style="stop-color:#F8AEAB"/>
						<stop  offset="0.2779" style="stop-color:#F7B3AB"/>
						<stop  offset="0.721" style="stop-color:#F5C4AD"/>
						<stop  offset="1" style="stop-color:#F5D0AD"/>
					</radialGradient>
					<ellipse fill="url(#SVGID_15_)" cx="484.1" cy="537.9" rx="41" ry="37.9"/>
				</g>
				<g>
					<g>
						<g>
							<path fill="#3B1410" d="M492.5,387.3c-10.6,0-21.1,5.1-28.7,15.4l0,0v0c-0.4,0.5-0.3,1.2,0.1,1.7l0,0
								c0.4,0.4,1.1,0.4,1.4-0.1l0,0c7.1-9.7,17.1-14.6,27.1-14.6l0,0c10,0,20,4.9,27.1,14.6l0,0c0.4,0.5,1,0.6,1.4,0.1l0,0
								c0.4-0.4,0.5-1.2,0.1-1.6l0,0C513.6,392.5,503.1,387.3,492.5,387.3L492.5,387.3C492.5,387.3,492.5,387.3,492.5,387.3
								L492.5,387.3z"/>
							<path fill="#3B1410" d="M520.4,406.4c-0.8,0-1.7-0.4-2.1-1.1l0,0c-6.8-9.3-16.3-13.9-25.8-13.9l0,0
								c-9.5,0-18.9,4.6-25.8,13.9l0,0c-0.5,0.7-1.3,1.1-2.1,1.1l0,0c-0.7,0-1.4-0.3-1.9-0.8l0,0c-0.6-0.6-0.9-1.4-0.9-2.1l0,0
								c0-0.6,0.2-1.2,0.6-1.8l0,0c0,0,0,0,0,0l0,0c7.8-10.6,18.9-16.1,30-16.1l0,0c0,0,0,0,0,0l0,0h0c11.1,0,22.2,5.4,30,16.1l0,0
								c0.4,0.5,0.6,1.2,0.6,1.8l0,0c0,0.7-0.3,1.5-0.9,2.1l0,0C521.8,406.1,521.1,406.4,520.4,406.4L520.4,406.4
								C520.4,406.4,520.4,406.4,520.4,406.4L520.4,406.4z M492.5,388v-0.6l0.3-1.7l-0.3,1.7V388L492.5,388L492.5,388z"/>
						</g>
					</g>
					<g>
						<g>
							<path fill="#3B1410" d="M227.4,387.3c-10.6,0-21.1,5.1-28.7,15.4l0,0v0c-0.4,0.5-0.3,1.2,0.1,1.7l0,0
								c0.4,0.4,1.1,0.4,1.4-0.1l0,0c7.1-9.7,17.1-14.6,27.1-14.6l0,0c10,0,20,4.9,27.1,14.6l0,0c0.4,0.5,1,0.6,1.4,0.1l0,0
								c0.4-0.4,0.5-1.2,0.1-1.6l0,0C248.6,392.5,238,387.3,227.4,387.3L227.4,387.3C227.4,387.3,227.4,387.3,227.4,387.3
								L227.4,387.3z"/>
							<path fill="#3B1410" d="M255.3,406.4c-0.8,0-1.7-0.4-2.1-1.1l0,0c-6.8-9.3-16.3-13.9-25.8-13.9l0,0
								c-9.5,0-18.9,4.6-25.8,13.9l0,0c-0.5,0.7-1.3,1.1-2.1,1.1l0,0c-0.7,0-1.4-0.3-1.9-0.8l0,0c-0.6-0.6-0.9-1.4-0.9-2.1l0,0
								c0-0.6,0.2-1.2,0.6-1.8l0,0c0,0,0,0,0,0l0,0c7.8-10.6,18.9-16.1,30-16.1l0,0c0,0,0,0,0,0l0,0h0c11.1,0,22.2,5.4,30,16.1l0,0
								c0.4,0.5,0.6,1.2,0.6,1.8l0,0c0,0.7-0.3,1.5-0.9,2.1l0,0C256.7,406.1,256,406.4,255.3,406.4L255.3,406.4
								C255.3,406.4,255.3,406.4,255.3,406.4L255.3,406.4z M227.4,388v-0.6l0.3-1.7l-0.3,1.7V388L227.4,388L227.4,388z"/>
						</g>
					</g>
				</g>
				<g>
					<path fill="#010101" d="M550.9,438.2c0,0-21,15.2-54.2,5.1c0,0-11.4-5.4-24.2-1.3c-14.9,3.7-25.9,16.4-25.9,31.4
						c0,18,15.7,32.6,35.1,32.6c17.6,0,32.1-12,34.7-27.7C526.5,476.5,544.7,465.7,550.9,438.2z"/>
					<g>
						<path fill="#FFFFFF" d="M507.9,468.3c0,5.8-5.1,10.5-11.5,10.5c-6.3,0-11.5-4.7-11.5-10.5c0-5.8,5.1-10.5,11.5-10.5
							C502.8,457.7,507.9,462.4,507.9,468.3z"/>
						<path fill="#FFFFFF" d="M481.9,485.3c0,2.7-2.4,4.9-5.4,4.9c-3,0-5.4-2.2-5.4-4.9c0-2.7,2.4-4.9,5.4-4.9
							C479.5,480.4,481.9,482.6,481.9,485.3z"/>
					</g>
					<g>
						<path fill="#1B181C" d="M259.3,466.9c-3.8-0.5-7.7,3.3-10.4,7.1c-12.2,18.1-45.4,18.1-57.6,0c-2.7-3.8-6.6-7.6-10.4-7.1l0,0
							c-3.8,0.4-5.5,7-1.5,12.9c17.3,25.6,64.3,25.6,81.6,0C264.9,474,263.1,467.4,259.3,466.9L259.3,466.9z"/>
					</g>
				</g>
				<g>
					<path fill="#FFFFFF" d="M416.7,544.3c-0.9-1.1-2.1-1-2.9,0h-0.3h-56.8h-2.9h-65.4c-0.8-1.4-2.3-1.2-3.3,0
						c-1,1.2-1.1,3.4-0.3,4.8v0c17.3,29.8,41.7,44.7,66.1,44.7c0,0,0,0,0,0c24.4,0,48.7-14.9,66.1-44.7
						C417.8,547.6,417.7,545.5,416.7,544.3z"/>
				</g>
			</g>
			<g>
				<path fill="#3B1410" d="M645.7,353.8c0-210.5-131.9-354-304.5-353.8c-170.2,0.3-285,143.2-285,353.8c0,25.1,15.7,89,21,101.1
					c9,20.4,48.7,52.9,75.6,91.9c-31.3-71.8-30.1-146.6-30.1-146.6s159.2,42.4,363.4-161.8c6.6,8.1,94.7,185.1,94.7,185.1
					s15,48.9-26.2,111.8c0,0,58.8-48.7,71.8-82.7C629.6,444.2,645.7,378.8,645.7,353.8z"/>
				<g>
					
						<linearGradient id="SVGID_16_" gradientUnits="userSpaceOnUse" x1="863.4878" y1="546.1713" x2="1076.1895" y2="546.1713" gradientTransform="matrix(-0.9886 0.1505 -0.1505 -0.9886 1307.9253 455.2067)">
						<stop  offset="0" style="stop-color:#3B1410"/>
						<stop  offset="0.1834" style="stop-color:#502919"/>
						<stop  offset="0.533" style="stop-color:#835321"/>
						<stop  offset="1" style="stop-color:#3B1410"/>
					</linearGradient>
					<path fill="url(#SVGID_16_)" d="M370.6,35.6c0,0-104-17.7-205.4,64.4C165.3,99.9,226.6,14.1,370.6,35.6z"/>
					
						<linearGradient id="SVGID_17_" gradientUnits="userSpaceOnUse" x1="610.3139" y1="401.9125" x2="718.1523" y2="401.9125" gradientTransform="matrix(-0.966 0.2584 -0.2584 -0.966 1291.7047 521.4924)">
						<stop  offset="0" style="stop-color:#3B1410"/>
						<stop  offset="0.1834" style="stop-color:#502919"/>
						<stop  offset="0.533" style="stop-color:#835321"/>
						<stop  offset="1" style="stop-color:#3B1410"/>
					</linearGradient>
					<path fill="url(#SVGID_17_)" d="M444.6,133.7c0,0,199.4,60.7,160,353.9C604.6,487.6,664.5,190.8,444.6,133.7z"/>
					
						<linearGradient id="SVGID_18_" gradientUnits="userSpaceOnUse" x1="614.109" y1="578.4322" x2="705.8876" y2="578.4322" gradientTransform="matrix(-1.0087 0.3502 -0.3689 -1.0625 1432.6991 628.5903)">
						<stop  offset="0" style="stop-color:#3B1410"/>
						<stop  offset="0.1834" style="stop-color:#502919"/>
						<stop  offset="0.533" style="stop-color:#835321"/>
						<stop  offset="1" style="stop-color:#3B1410"/>
					</linearGradient>
					<path fill="url(#SVGID_18_)" d="M450,96.2c0,0,148.7-5.4,178.5,307.8C628.5,404,628.5,93.6,450,96.2z"/>
					
						<linearGradient id="SVGID_19_" gradientUnits="userSpaceOnUse" x1="612.9116" y1="494.0731" x2="894.1426" y2="494.0731" gradientTransform="matrix(-0.9989 -4.670000e-02 4.670000e-02 -0.9989 992.6725 663.0631)">
						<stop  offset="0" style="stop-color:#3B1410"/>
						<stop  offset="0.1834" style="stop-color:#502919"/>
						<stop  offset="0.533" style="stop-color:#835321"/>
						<stop  offset="1" style="stop-color:#3B1410"/>
					</linearGradient>
					<path fill="url(#SVGID_19_)" d="M406.5,77c0,0-172.4-42.4-287.1,119.6C119.4,196.7,201.7,31.4,406.5,77z"/>
					
						<linearGradient id="SVGID_20_" gradientUnits="userSpaceOnUse" x1="687.331" y1="700.6479" x2="957.2936" y2="700.6479" gradientTransform="matrix(-1.1164 0.6519 -0.5042 -0.8635 1537.3705 353.8464)">
						<stop  offset="0" style="stop-color:#3B1410"/>
						<stop  offset="0.1834" style="stop-color:#502919"/>
						<stop  offset="0.533" style="stop-color:#835321"/>
						<stop  offset="1" style="stop-color:#3B1410"/>
					</linearGradient>
					<path fill="url(#SVGID_20_)" d="M411.4,187.7c0,0-161.9,41.3-281.6,209.9C129.8,397.6,181.3,256.4,411.4,187.7z"/>
					
						<linearGradient id="SVGID_21_" gradientUnits="userSpaceOnUse" x1="433.6625" y1="499.8263" x2="765.3298" y2="499.8263" gradientTransform="matrix(-0.9695 6.330000e-02 -4.060000e-02 -0.9072 852.5776 710.7653)">
						<stop  offset="0" style="stop-color:#3B1410"/>
						<stop  offset="0.1834" style="stop-color:#502919"/>
						<stop  offset="0.533" style="stop-color:#835321"/>
						<stop  offset="1" style="stop-color:#3B1410"/>
					</linearGradient>
					<path fill="url(#SVGID_21_)" d="M403.9,106.1c0,0-354.1-2.6-299.3,378.7C104.5,484.7,10.2,113.7,403.9,106.1z"/>
					
						<linearGradient id="SVGID_22_" gradientUnits="userSpaceOnUse" x1="362.5122" y1="600.5869" x2="749.7754" y2="600.5869" gradientTransform="matrix(-0.8219 0.1065 -0.1225 -0.945 788.4887 781.1601)">
						<stop  offset="0" style="stop-color:#3B1410"/>
						<stop  offset="0.1834" style="stop-color:#502919"/>
						<stop  offset="0.533" style="stop-color:#835321"/>
						<stop  offset="1" style="stop-color:#3B1410"/>
					</linearGradient>
					<path fill="url(#SVGID_22_)" d="M404,152.4c0,0-221.8,21.4-292.1,243.5C112,396,166.1,152.4,404,152.4z"/>
					
						<linearGradient id="SVGID_23_" gradientUnits="userSpaceOnUse" x1="592.3666" y1="615.9535" x2="698" y2="615.9535" gradientTransform="matrix(-1.0087 0.3502 -0.3689 -1.0625 1432.6991 628.5903)">
						<stop  offset="0" style="stop-color:#3B1410"/>
						<stop  offset="0.1834" style="stop-color:#502919"/>
						<stop  offset="0.533" style="stop-color:#835321"/>
						<stop  offset="1" style="stop-color:#3B1410"/>
					</linearGradient>
					<path fill="url(#SVGID_23_)" d="M445.9,58.9c0,0,177.1,21.3,198.8,288.9C644.7,347.8,636.6,69.5,445.9,58.9z"/>
					
						<linearGradient id="SVGID_24_" gradientUnits="userSpaceOnUse" x1="152.8591" y1="265.4398" x2="427.4066" y2="409.5646" gradientTransform="matrix(1 0 0 -1 0 642.0007)">
						<stop  offset="0" style="stop-color:#3B1410"/>
						<stop  offset="0.1834" style="stop-color:#502919"/>
						<stop  offset="0.533" style="stop-color:#835321"/>
						<stop  offset="1" style="stop-color:#3B1410"/>
					</linearGradient>
					<path fill="url(#SVGID_24_)" d="M421.9,221.9c0,0-221.6,70.7-254.9,181.5C166.9,403.4,214.6,264.3,421.9,221.9z"/>
					
						<linearGradient id="SVGID_25_" gradientUnits="userSpaceOnUse" x1="202.8849" y1="247.675" x2="457.348" y2="381.2563" gradientTransform="matrix(1 0 0 -1 0 642.0007)">
						<stop  offset="0" style="stop-color:#3B1410"/>
						<stop  offset="0.1834" style="stop-color:#502919"/>
						<stop  offset="0.533" style="stop-color:#835321"/>
						<stop  offset="1" style="stop-color:#3B1410"/>
					</linearGradient>
					<path fill="url(#SVGID_25_)" d="M448.4,243.7c0,0-121.5,124.9-245.4,150.9C203,394.6,341.2,382.8,448.4,243.7z"/>
				</g>
			</g>
		</g>
	</g>
</g>
</svg>
