<svg xmlns="http://www.w3.org/2000/svg" id="Layer_1" width="689" height="642" viewBox="0 0 689.3 642.2"><style>.a{fill:#3B1410;}.b{stop-color:#3B1410;}.c{stop-color:#502919;}.d{stop-color:#835321;}.e{stop-color:#F5D0AD;}.f{stop-color:#F8AEAB;}.g{stop-color:#F7B3AB;}.h{stop-color:#F5C4AD;}.i{fill:#FFF;}</style><ellipse transform="matrix(-0.7763 0.6304 -0.6304 -0.7763 1105.569 -118.9386)" cx="573.9" cy="136.7" rx="117.4" ry="112.3" class="a"/><linearGradient id="SVGID_1_" gradientUnits="userSpaceOnUse" x1="-436.2" y1="-179.6" x2="-364.9" y2="-179.6" gradientTransform="matrix(-4.140000e-02 -0.999 -0.999 4.140000e-02 444.2181 -216.5548)"><stop offset="0" class="b"/><stop offset="0.1834" class="c"/><stop offset="0.533" class="d"/><stop offset="1" class="b"/></linearGradient><path d="M610.4 213.1c0 0 63.7 1.5 59.5-73.8C670 139.2 663 200.7 610.4 213.1z" fill="url(#SVGID_1_)"/><linearGradient id="SVGID_2_" gradientUnits="userSpaceOnUse" x1="396.1" y1="435.9" x2="471.4" y2="435.9" gradientTransform="matrix(0.7423 0.67 -0.67 0.7423 557.8016 -556.8734)"><stop offset="0" class="b"/><stop offset="0.1834" class="c"/><stop offset="0.533" class="d"/><stop offset="1" class="b"/></linearGradient><path d="M538.4 55.7c0 0 40.3-47.3 98.6 3.2C637 58.9 582.6 25.2 538.4 55.7z" fill="url(#SVGID_2_)"/><linearGradient id="SVGID_3_" gradientUnits="userSpaceOnUse" x1="-2107.7" y1="1310" x2="-2051.5" y2="1310" gradientTransform="matrix(-0.5277 0.8493 0.8493 0.5277 -1610.5022 1164.1517)"><stop offset="0" class="b"/><stop offset="0.1834" class="c"/><stop offset="0.533" class="d"/><stop offset="1" class="b"/></linearGradient><path d="M645.6 86.6c0 0-56.1-31.2-93.2 6.5C552.4 93.1 587.1 35.9 645.6 86.6z" fill="url(#SVGID_3_)"/><linearGradient id="SVGID_4_" gradientUnits="userSpaceOnUse" x1="-2105.8" y1="1030" x2="-2032.5" y2="1030" gradientTransform="matrix(-0.6438 0.7652 0.7652 0.6438 -1518.1245 1033.9381)"><stop offset="0" class="b"/><stop offset="0.1834" class="c"/><stop offset="0.533" class="d"/><stop offset="1" class="b"/></linearGradient><path d="M645.8 102.6c0 0-50.1-21.3-87 22.6C558.8 125.2 592.3 71.1 645.8 102.6z" fill="url(#SVGID_4_)"/><linearGradient id="SVGID_5_" gradientUnits="userSpaceOnUse" x1="-2174.4" y1="1058.4" x2="-2090.7" y2="1058.4" gradientTransform="matrix(-0.8224 0.569 0.569 0.8224 -1728.1842 509.7257)"><stop offset="0" class="b"/><stop offset="0.1834" class="c"/><stop offset="0.533" class="d"/><stop offset="1" class="b"/></linearGradient><path d="M657.5 136.1c0 0-18 53.4-70.6 45.1C586.9 181.2 644.2 201.1 657.5 136.1z" fill="url(#SVGID_5_)"/><linearGradient id="SVGID_6_" gradientUnits="userSpaceOnUse" x1="-2095.9" y1="1051" x2="-2024.4" y2="1051" gradientTransform="matrix(-0.6438 0.7652 0.7652 0.6438 -1518.1245 1033.9381)"><stop offset="0" class="b"/><stop offset="0.1834" class="c"/><stop offset="0.533" class="d"/><stop offset="1" class="b"/></linearGradient><path d="M646.1 115.8c0 0-21.9 30.8-68.6 35.6C577.4 151.4 620.6 161.9 646.1 115.8z" fill="url(#SVGID_6_)"/><path d="M186.2 46.1c50.3 40.9 59.5 113.1 20.4 161.2 -39.1 48.2-111.6 54-162 13.2C-5.7 179.6-14.8 107.4 24.3 59.3 63.4 11.1 135.9 5.2 186.2 46.1z" class="a"/><linearGradient id="SVGID_7_" gradientUnits="userSpaceOnUse" x1="-470.6" y1="-1092.4" x2="-399.3" y2="-1092.4" gradientTransform="matrix(4.140000e-02 -0.999 0.999 4.140000e-02 1158.4691 -216.5548)"><stop offset="0" class="b"/><stop offset="0.1834" class="c"/><stop offset="0.533" class="d"/><stop offset="1" class="b"/></linearGradient><path d="M78.9 209.6c0 0-63.7 1.5-59.5-73.8C19.3 135.8 26.3 197.3 78.9 209.6z" fill="url(#SVGID_7_)"/><linearGradient id="SVGID_8_" gradientUnits="userSpaceOnUse" x1="1071.8" y1="-178.6" x2="1147.1" y2="-178.6" gradientTransform="matrix(-0.7423 0.67 0.67 0.7423 1044.8855 -556.8734)"><stop offset="0" class="b"/><stop offset="0.1834" class="c"/><stop offset="0.533" class="d"/><stop offset="1" class="b"/></linearGradient><path d="M150.9 52.3c0 0-40.3-47.3-98.6 3.2C52.3 55.5 106.7 21.8 150.9 52.3z" fill="url(#SVGID_8_)"/><linearGradient id="SVGID_9_" gradientUnits="userSpaceOnUse" x1="-2592.7" y1="2084" x2="-2536.5" y2="2084" gradientTransform="matrix(0.5277 0.8493 -0.8493 0.5277 3213.1902 1164.1517)"><stop offset="0" class="b"/><stop offset="0.1834" class="c"/><stop offset="0.533" class="d"/><stop offset="1" class="b"/></linearGradient><path d="M43.7 83.2c0 0 56.1-31.2 93.2 6.5C136.9 89.7 102.3 32.5 43.7 83.2z" fill="url(#SVGID_9_)"/><linearGradient id="SVGID_10_" gradientUnits="userSpaceOnUse" x1="-2696.4" y1="1726.7" x2="-2623.1" y2="1726.7" gradientTransform="matrix(0.6438 0.7652 -0.7652 0.6438 3120.812 1033.9381)"><stop offset="0" class="b"/><stop offset="0.1834" class="c"/><stop offset="0.533" class="d"/><stop offset="1" class="b"/></linearGradient><path d="M43.5 99.2c0 0 50.1-21.3 87 22.6C130.5 121.8 97 67.7 43.5 99.2z" fill="url(#SVGID_10_)"/><linearGradient id="SVGID_11_" gradientUnits="userSpaceOnUse" x1="-2927.4" y1="1575.2" x2="-2843.7" y2="1575.2" gradientTransform="matrix(0.8224 0.569 -0.569 0.8224 3330.8713 509.7257)"><stop offset="0" class="b"/><stop offset="0.1834" class="c"/><stop offset="0.533" class="d"/><stop offset="1" class="b"/></linearGradient><path d="M31.8 132.7c0 0 18 53.4 70.6 45.1C102.4 177.8 45.1 197.7 31.8 132.7z" fill="url(#SVGID_11_)"/><linearGradient id="SVGID_12_" gradientUnits="userSpaceOnUse" x1="-2686.5" y1="1747.7" x2="-2615.1" y2="1747.7" gradientTransform="matrix(0.6438 0.7652 -0.7652 0.6438 3120.812 1033.9381)"><stop offset="0" class="b"/><stop offset="0.1834" class="c"/><stop offset="0.533" class="d"/><stop offset="1" class="b"/></linearGradient><path d="M43.2 112.3c0 0 21.9 30.8 68.6 35.6C111.9 148 68.7 158.5 43.2 112.3z" fill="url(#SVGID_12_)"/><linearGradient id="SVGID_13_" gradientUnits="userSpaceOnUse" x1="311.2" y1="578" x2="360.3" y2="217.6" gradientTransform="matrix(1 0 0 -1 0 642.0007)"><stop offset="5.600000e-03" stop-color="#E3B087"/><stop offset="2.910000e-02" stop-color="#E5B38B"/><stop offset="0.1391" stop-color="#ECC09A"/><stop offset="0.2753" stop-color="#F1C9A5"/><stop offset="0.4672" stop-color="#F4CEAB"/><stop offset="1" class="e"/></linearGradient><path d="M349.1 57.3c-151.5 0-274.2 127.4-274.2 284.5 0 22.4 2.5 44.3 7.2 65.2 28.4 125.7 138.3 235.2 268.1 235.2 127 0 232.7-105.5 263.9-227.1 6-23.4 9.2-48 9.2-73.3C623.3 184.7 500.5 57.3 349.1 57.3z" fill="url(#SVGID_13_)"/><radialGradient id="SVGID_14_" cx="214" cy="104.1" r="39.5" gradientTransform="matrix(1 0 0 -1 0 642.0007)" gradientUnits="userSpaceOnUse"><stop offset="0" class="f"/><stop offset="0.2779" class="g"/><stop offset="0.721" class="h"/><stop offset="1" class="e"/></radialGradient><ellipse cx="214" cy="537.9" rx="41" ry="37.9" fill="url(#SVGID_14_)"/><radialGradient id="SVGID_15_" cx="484.1" cy="104.1" r="39.5" gradientTransform="matrix(1 0 0 -1 0 642.0007)" gradientUnits="userSpaceOnUse"><stop offset="0" class="f"/><stop offset="0.2779" class="g"/><stop offset="0.721" class="h"/><stop offset="1" class="e"/></radialGradient><ellipse cx="484.1" cy="537.9" rx="41" ry="37.9" fill="url(#SVGID_15_)"/><path d="M492.5 387.3c-10.6 0-21.1 5.1-28.7 15.4l0 0v0c-0.4 0.5-0.3 1.2 0.1 1.7l0 0c0.4 0.4 1.1 0.4 1.4-0.1l0 0c7.1-9.7 17.1-14.6 27.1-14.6l0 0c10 0 20 4.9 27.1 14.6l0 0c0.4 0.5 1 0.6 1.4 0.1l0 0c0.4-0.4 0.5-1.2 0.1-1.6l0 0C513.6 392.5 503.1 387.3 492.5 387.3L492.5 387.3C492.5 387.3 492.5 387.3 492.5 387.3L492.5 387.3z" class="a"/><path d="M520.4 406.4c-0.8 0-1.7-0.4-2.1-1.1l0 0c-6.8-9.3-16.3-13.9-25.8-13.9l0 0c-9.5 0-18.9 4.6-25.8 13.9l0 0c-0.5 0.7-1.3 1.1-2.1 1.1l0 0c-0.7 0-1.4-0.3-1.9-0.8l0 0c-0.6-0.6-0.9-1.4-0.9-2.1l0 0c0-0.6 0.2-1.2 0.6-1.8l0 0c0 0 0 0 0 0l0 0c7.8-10.6 18.9-16.1 30-16.1l0 0c0 0 0 0 0 0l0 0h0c11.1 0 22.2 5.4 30 16.1l0 0c0.4 0.5 0.6 1.2 0.6 1.8l0 0c0 0.7-0.3 1.5-0.9 2.1l0 0C521.8 406.1 521.1 406.4 520.4 406.4L520.4 406.4C520.4 406.4 520.4 406.4 520.4 406.4L520.4 406.4zM492.5 388v-0.6l0.3-1.7 -0.3 1.7V388L492.5 388 492.5 388z" class="a"/><path d="M227.4 387.3c-10.6 0-21.1 5.1-28.7 15.4l0 0v0c-0.4 0.5-0.3 1.2 0.1 1.7l0 0c0.4 0.4 1.1 0.4 1.4-0.1l0 0c7.1-9.7 17.1-14.6 27.1-14.6l0 0c10 0 20 4.9 27.1 14.6l0 0c0.4 0.5 1 0.6 1.4 0.1l0 0c0.4-0.4 0.5-1.2 0.1-1.6l0 0C248.6 392.5 238 387.3 227.4 387.3L227.4 387.3C227.4 387.3 227.4 387.3 227.4 387.3L227.4 387.3z" class="a"/><path d="M255.3 406.4c-0.8 0-1.7-0.4-2.1-1.1l0 0c-6.8-9.3-16.3-13.9-25.8-13.9l0 0c-9.5 0-18.9 4.6-25.8 13.9l0 0c-0.5 0.7-1.3 1.1-2.1 1.1l0 0c-0.7 0-1.4-0.3-1.9-0.8l0 0c-0.6-0.6-0.9-1.4-0.9-2.1l0 0c0-0.6 0.2-1.2 0.6-1.8l0 0c0 0 0 0 0 0l0 0c7.8-10.6 18.9-16.1 30-16.1l0 0c0 0 0 0 0 0l0 0h0c11.1 0 22.2 5.4 30 16.1l0 0c0.4 0.5 0.6 1.2 0.6 1.8l0 0c0 0.7-0.3 1.5-0.9 2.1l0 0C256.7 406.1 256 406.4 255.3 406.4L255.3 406.4C255.3 406.4 255.3 406.4 255.3 406.4L255.3 406.4zM227.4 388v-0.6l0.3-1.7 -0.3 1.7V388L227.4 388 227.4 388z" class="a"/><path d="M550.9 438.2c0 0-21 15.2-54.2 5.1 0 0-11.4-5.4-24.2-1.3 -14.9 3.7-25.9 16.4-25.9 31.4 0 18 15.7 32.6 35.1 32.6 17.6 0 32.1-12 34.7-27.7C526.5 476.5 544.7 465.7 550.9 438.2z" fill="#010101"/><path d="M507.9 468.3c0 5.8-5.1 10.5-11.5 10.5 -6.3 0-11.5-4.7-11.5-10.5 0-5.8 5.1-10.5 11.5-10.5C502.8 457.7 507.9 462.4 507.9 468.3z" class="i"/><path d="M481.9 485.3c0 2.7-2.4 4.9-5.4 4.9 -3 0-5.4-2.2-5.4-4.9 0-2.7 2.4-4.9 5.4-4.9C479.5 480.4 481.9 482.6 481.9 485.3z" class="i"/><path d="M259.3 466.9c-3.8-0.5-7.7 3.3-10.4 7.1 -12.2 18.1-45.4 18.1-57.6 0 -2.7-3.8-6.6-7.6-10.4-7.1l0 0c-3.8 0.4-5.5 7-1.5 12.9 17.3 25.6 64.3 25.6 81.6 0C264.9 474 263.1 467.4 259.3 466.9L259.3 466.9z" fill="#1B181C"/><path d="M416.7 544.3c-0.9-1.1-2.1-1-2.9 0h-0.3 -56.8 -2.9 -65.4c-0.8-1.4-2.3-1.2-3.3 0 -1 1.2-1.1 3.4-0.3 4.8v0c17.3 29.8 41.7 44.7 66.1 44.7 0 0 0 0 0 0 24.4 0 48.7-14.9 66.1-44.7C417.8 547.6 417.7 545.5 416.7 544.3z" class="i"/><path d="M645.7 353.8c0-210.5-131.9-354-304.5-353.8 -170.2 0.3-285 143.2-285 353.8 0 25.1 15.7 89 21 101.1 9 20.4 48.7 52.9 75.6 91.9 -31.3-71.8-30.1-146.6-30.1-146.6s159.2 42.4 363.4-161.8c6.6 8.1 94.7 185.1 94.7 185.1s15 48.9-26.2 111.8c0 0 58.8-48.7 71.8-82.7C629.6 444.2 645.7 378.8 645.7 353.8z" class="a"/><linearGradient id="SVGID_16_" gradientUnits="userSpaceOnUse" x1="863.5" y1="546.2" x2="1076.2" y2="546.2" gradientTransform="matrix(-0.9886 0.1505 -0.1505 -0.9886 1307.9253 455.2067)"><stop offset="0" class="b"/><stop offset="0.1834" class="c"/><stop offset="0.533" class="d"/><stop offset="1" class="b"/></linearGradient><path d="M370.6 35.6c0 0-104-17.7-205.4 64.4C165.3 99.9 226.6 14.1 370.6 35.6z" fill="url(#SVGID_16_)"/><linearGradient id="SVGID_17_" gradientUnits="userSpaceOnUse" x1="610.3" y1="401.9" x2="718.2" y2="401.9" gradientTransform="matrix(-0.966 0.2584 -0.2584 -0.966 1291.7047 521.4924)"><stop offset="0" class="b"/><stop offset="0.1834" class="c"/><stop offset="0.533" class="d"/><stop offset="1" class="b"/></linearGradient><path d="M444.6 133.7c0 0 199.4 60.7 160 353.9C604.6 487.6 664.5 190.8 444.6 133.7z" fill="url(#SVGID_17_)"/><linearGradient id="SVGID_18_" gradientUnits="userSpaceOnUse" x1="614.1" y1="578.4" x2="705.9" y2="578.4" gradientTransform="matrix(-1.0087 0.3502 -0.3689 -1.0625 1432.6991 628.5903)"><stop offset="0" class="b"/><stop offset="0.1834" class="c"/><stop offset="0.533" class="d"/><stop offset="1" class="b"/></linearGradient><path d="M450 96.2c0 0 148.7-5.4 178.5 307.8C628.5 404 628.5 93.6 450 96.2z" fill="url(#SVGID_18_)"/><linearGradient id="SVGID_19_" gradientUnits="userSpaceOnUse" x1="612.9" y1="494.1" x2="894.1" y2="494.1" gradientTransform="matrix(-0.9989 -4.670000e-02 4.670000e-02 -0.9989 992.6725 663.0631)"><stop offset="0" class="b"/><stop offset="0.1834" class="c"/><stop offset="0.533" class="d"/><stop offset="1" class="b"/></linearGradient><path d="M406.5 77c0 0-172.4-42.4-287.1 119.6C119.4 196.7 201.7 31.4 406.5 77z" fill="url(#SVGID_19_)"/><linearGradient id="SVGID_20_" gradientUnits="userSpaceOnUse" x1="687.3" y1="700.6" x2="957.3" y2="700.6" gradientTransform="matrix(-1.1164 0.6519 -0.5042 -0.8635 1537.3705 353.8464)"><stop offset="0" class="b"/><stop offset="0.1834" class="c"/><stop offset="0.533" class="d"/><stop offset="1" class="b"/></linearGradient><path d="M411.4 187.7c0 0-161.9 41.3-281.6 209.9C129.8 397.6 181.3 256.4 411.4 187.7z" fill="url(#SVGID_20_)"/><linearGradient id="SVGID_21_" gradientUnits="userSpaceOnUse" x1="433.7" y1="499.8" x2="765.3" y2="499.8" gradientTransform="matrix(-0.9695 6.330000e-02 -4.060000e-02 -0.9072 852.5776 710.7653)"><stop offset="0" class="b"/><stop offset="0.1834" class="c"/><stop offset="0.533" class="d"/><stop offset="1" class="b"/></linearGradient><path d="M403.9 106.1c0 0-354.1-2.6-299.3 378.7C104.5 484.7 10.2 113.7 403.9 106.1z" fill="url(#SVGID_21_)"/><linearGradient id="SVGID_22_" gradientUnits="userSpaceOnUse" x1="362.5" y1="600.6" x2="749.8" y2="600.6" gradientTransform="matrix(-0.8219 0.1065 -0.1225 -0.945 788.4887 781.1601)"><stop offset="0" class="b"/><stop offset="0.1834" class="c"/><stop offset="0.533" class="d"/><stop offset="1" class="b"/></linearGradient><path d="M404 152.4c0 0-221.8 21.4-292.1 243.5C112 396 166.1 152.4 404 152.4z" fill="url(#SVGID_22_)"/><linearGradient id="SVGID_23_" gradientUnits="userSpaceOnUse" x1="592.4" y1="616" x2="698" y2="616" gradientTransform="matrix(-1.0087 0.3502 -0.3689 -1.0625 1432.6991 628.5903)"><stop offset="0" class="b"/><stop offset="0.1834" class="c"/><stop offset="0.533" class="d"/><stop offset="1" class="b"/></linearGradient><path d="M445.9 58.9c0 0 177.1 21.3 198.8 288.9C644.7 347.8 636.6 69.5 445.9 58.9z" fill="url(#SVGID_23_)"/><linearGradient id="SVGID_24_" gradientUnits="userSpaceOnUse" x1="152.9" y1="265.4" x2="427.4" y2="409.6" gradientTransform="matrix(1 0 0 -1 0 642.0007)"><stop offset="0" class="b"/><stop offset="0.1834" class="c"/><stop offset="0.533" class="d"/><stop offset="1" class="b"/></linearGradient><path d="M421.9 221.9c0 0-221.6 70.7-254.9 181.5C166.9 403.4 214.6 264.3 421.9 221.9z" fill="url(#SVGID_24_)"/><linearGradient id="SVGID_25_" gradientUnits="userSpaceOnUse" x1="202.9" y1="247.7" x2="457.3" y2="381.3" gradientTransform="matrix(1 0 0 -1 0 642.0007)"><stop offset="0" class="b"/><stop offset="0.1834" class="c"/><stop offset="0.533" class="d"/><stop offset="1" class="b"/></linearGradient><path d="M448.4 243.7c0 0-121.5 124.9-245.4 150.9C203 394.6 341.2 382.8 448.4 243.7z" fill="url(#SVGID_25_)"/></svg>
